<svg id="Layer_1" data-name="Layer 1" xmlns="http://www.w3.org/2000/svg" viewBox="0 0 517.68 80"><defs><style>.cls-1{fill:#222a2e;}.cls-2{fill:#877ec7;}.cls-3{fill:#8e9299;}</style></defs><title>density-open-source-logos</title><path class="cls-1" d="M142.67,67.15l-23-32.91V67.15h-7.42V20.52h6.23l23.06,33v-33H149V67.15h-6.3Z"/><path class="cls-1" d="M167.11,24.07a4.39,4.39,0,0,1-4.43,4.36,4.36,4.36,0,0,1,0-8.73A4.39,4.39,0,0,1,167.11,24.07Zm-7.92,43.07v-32h7v32h-7Z"/><path class="cls-1" d="M205,46.7l-6.86.62c-0.5-4.18-3.62-6.73-7.85-6.73-5.17,0-8.91,3.8-8.91,10.6s3.8,10.53,8.91,10.53c4.36,0,7.29-2.43,7.92-6.36L205.07,56c-1.25,7.29-7,11.78-14.77,11.78-9.16,0-16-6.11-16-16.58s6.79-16.58,16-16.58C198,34.61,203.95,39.16,205,46.7Z"/><path class="cls-1" d="M235.24,44.77l-7,.37c-0.25-2.68-1.93-4.55-5.49-4.55-3.3,0-5,1.37-5,3.55,0,2.74,2.74,3,7,4,6.61,1.68,11,3.68,11,9.41,0,6.42-4.74,10.22-12.53,10.22s-12.34-3.86-13.09-10.22l7-.44c0.37,2.93,2.43,4.61,6.23,4.61,3.18,0,5.42-1.25,5.42-3.62,0-2.62-1.68-3.24-6.92-4.49-6.48-1.56-11.1-2.93-11.1-9.35,0-5.73,4.43-9.66,12.16-9.66S234.62,39.1,235.24,44.77Z"/><path class="cls-1" d="M266.53,44.77l-7,.37c-0.25-2.68-1.93-4.55-5.49-4.55-3.3,0-5,1.37-5,3.55,0,2.74,2.74,3,7,4,6.61,1.68,11,3.68,11,9.41,0,6.42-4.74,10.22-12.53,10.22s-12.34-3.86-13.09-10.22l7-.44c0.37,2.93,2.43,4.61,6.23,4.61,3.18,0,5.42-1.25,5.42-3.62,0-2.62-1.68-3.24-6.92-4.49-6.48-1.56-11.1-2.93-11.1-9.35,0-5.73,4.43-9.66,12.16-9.66S265.91,39.1,266.53,44.77Z"/><path class="cls-2" d="M61.25,25.47h0A2.59,2.59,0,0,0,61.12,25l-0.05-.12a2.56,2.56,0,0,0-.16-0.3l-0.07-.11a2.59,2.59,0,0,0-.29-0.36L37.16,0.76A2.59,2.59,0,0,0,36.8.47L36.69,0.4l-0.3-.16-0.12-.05A2.6,2.6,0,0,0,35.84.05h0a2.6,2.6,0,0,0-.46,0H2.6A2.6,2.6,0,0,0,0,2.6V77.4A2.6,2.6,0,0,0,2.6,80H58.7a2.6,2.6,0,0,0,2.6-2.6V26s0,0,0-.05A2.6,2.6,0,0,0,61.25,25.47Zm-8.82-2.09H37.92V8.87ZM5.19,74.81V5.19H32.73V26a2.6,2.6,0,0,0,2.6,2.6H56.1V74.81H5.19Z"/><path class="cls-3" d="M319.11,57.44l-2.51.22a4.34,4.34,0,0,0-4.6-3.75c-3,0-5,2.13-5,5.63,0,3.67,2.21,5.63,5,5.63a4.3,4.3,0,0,0,4.58-3.61l2.53,0.22c-0.59,3.44-3.42,5.53-7,5.53-4.34,0-7.58-2.88-7.58-7.78s3.2-7.78,7.56-7.78C315.68,51.77,318.6,53.92,319.11,57.44Z"/><path class="cls-3" d="M326.78,58.82a2.64,2.64,0,0,0-2.9,2.65v5.65h-2.27V56.73h2.21v1.46a3,3,0,0,1,3-1.58v2.21Z"/><path class="cls-3" d="M336.77,60.66v6.46h-2.29V66.2a4,4,0,0,1-2.82,1.13c-2.07,0-3.46-1.09-3.46-3,0-2.23,1.68-3,3.81-3.14l2.47-.14v-0.3c0-1.34-.57-2.17-1.84-2.17a1.69,1.69,0,0,0-1.86,1.76l-2.29-.08a3.85,3.85,0,0,1,4.13-3.67C335.29,56.55,336.77,58,336.77,60.66Zm-4.44,2.25c-1.07.06-1.84,0.41-1.84,1.34s0.65,1.17,1.56,1.17a2.16,2.16,0,0,0,2.45-2.29V62.77Z"/><path class="cls-3" d="M345.32,51.34v2a5.29,5.29,0,0,0-.65,0,1.83,1.83,0,0,0-1.95,2v1.5h2.55v2h-2.55v8.43h-2.27V58.7h-2v-2h2V55.3a3.71,3.71,0,0,1,4-4A5.41,5.41,0,0,1,345.32,51.34Z"/><path class="cls-3" d="M352.9,65.14v2a8.56,8.56,0,0,1-1.52.12c-2,0-3.46-1-3.44-3.36l0-5.23H346v-2H348l0-3.53h2.29l0,3.53h2.63v2h-2.65l0,4.76a1.56,1.56,0,0,0,1.72,1.78A5.29,5.29,0,0,0,352.9,65.14Z"/><path class="cls-3" d="M356.85,62.79a2.62,2.62,0,0,0,2.78,2.57,2.31,2.31,0,0,0,2.47-1.48L364.39,64a4.63,4.63,0,0,1-4.7,3.32,5,5,0,0,1-5.25-5.39c0-3.38,2.17-5.39,5.19-5.39s4.86,2,4.86,5.13v1.11h-7.64Zm0-1.78h5.33a2.38,2.38,0,0,0-2.59-2.51A2.55,2.55,0,0,0,356.87,61Z"/><path class="cls-3" d="M374.9,67.13V65.69a3.87,3.87,0,0,1-3.42,1.64c-2.9,0-5-2.09-5-5.39s2.11-5.39,5-5.39a4,4,0,0,1,3.3,1.44v-6.6H377V67.13H374.9Zm-6.12-5.19c0,2.21,1.3,3.42,3.06,3.42a2.83,2.83,0,0,0,2.94-3.16V61.66a2.84,2.84,0,0,0-2.94-3.16C370.08,58.5,368.78,59.73,368.78,61.94Z"/><path class="cls-3" d="M387.32,58a4,4,0,0,1,3.3-1.44c2.9,0,5,2.07,5,5.39s-2.11,5.39-5,5.39a3.87,3.87,0,0,1-3.42-1.64v1.44h-2.15V51.39h2.27V58Zm0,3.67V62.2a2.83,2.83,0,0,0,2.94,3.16c1.76,0,3.06-1.22,3.06-3.42s-1.3-3.44-3.06-3.44A2.84,2.84,0,0,0,387.32,61.66Z"/><path class="cls-3" d="M398,72.29l2.55-5.9-4.11-9.66H399l2.8,7.11,2.8-7.11h2.53l-6.6,15.56H398Z"/><path class="cls-1" d="M469,56.39H471a0.37,0.37,0,0,1,.37.37v1a4,4,0,0,1,3.33-1.62c2.73,0,4.39,1.77,4.39,4.72v6.32h-2a0.37,0.37,0,0,1-.37-0.37V61.09c0-1.77-.89-2.9-2.62-2.9a2.78,2.78,0,0,0-2.75,3.07v6h-1.95a0.37,0.37,0,0,1-.37-0.37V56.39Z"/><path class="cls-1" d="M481.34,64.92l1.78-.93a0.36,0.36,0,0,1,.47.11,3.06,3.06,0,0,0,2.6,1.31c1.3,0,2-.67,2-1.43s-1.25-1.06-2.62-1.34c-1.84-.39-3.74-1-3.74-3.22,0-1.71,1.62-3.29,4.18-3.27a4.93,4.93,0,0,1,4.35,2.1l-1.65.91a0.37,0.37,0,0,1-.46-0.09,2.83,2.83,0,0,0-2.24-1c-1.23,0-1.86.61-1.86,1.3s1,1,2.55,1.34c1.77,0.39,3.79,1,3.79,3.22,0,1.49-1.3,3.5-4.37,3.48A5.06,5.06,0,0,1,481.34,64.92Z"/><path class="cls-1" d="M493.15,51.87h2a0.37,0.37,0,0,1,.37.37v2.12h-2a0.37,0.37,0,0,1-.37-0.37V51.87Zm0,4.52h2a0.37,0.37,0,0,1,.37.37V67.21h-2a0.37,0.37,0,0,1-.37-0.37V56.39Z"/><polygon class="cls-1" points="502.46 52.56 502.43 52.58 502.46 52.58 502.46 52.56"/><path class="cls-1" d="M504.55,65.06h-0.3a2.17,2.17,0,0,1-.92-0.18,1.45,1.45,0,0,1-.81-1.11,7.18,7.18,0,0,1-.05-0.93l0-4.38h2.27V56.76a0.37,0.37,0,0,0-.37-0.37h-1.93V52.58h0l-2.12,1.16a0.37,0.37,0,0,0-.19.32v2.34h-1.84V58.1a0.37,0.37,0,0,0,.37.37h1.47v0.2l0,5c0,2.44,1.45,3.49,3.58,3.49h0.06a9.11,9.11,0,0,0,1-.05l0.5-.07V65.39a0.37,0.37,0,0,0-.41-0.36Z"/><path class="cls-1" d="M511.08,66.65L506.6,56.39h2.25a0.37,0.37,0,0,1,.34.22l3.06,7.28,2.89-7.28a0.37,0.37,0,0,1,.34-0.23h2.2L511.24,72a0.37,0.37,0,0,1-.34.23h-2.14Z"/><path class="cls-1" d="M460.93,65.37a3.31,3.31,0,0,1-3.48-2.77H466a0.37,0.37,0,0,0,.37-0.37v-0.4a5.63,5.63,0,0,0-5.61-5.66,5.57,5.57,0,0,0-5.58,5.67A5.77,5.77,0,0,0,465.65,65L464,64.14a0.36,0.36,0,0,0-.45.08A3.41,3.41,0,0,1,460.93,65.37Zm-0.09-7.16a3,3,0,0,1,3.2,2.42h-6.49A3.36,3.36,0,0,1,460.84,58.21Z"/><path class="cls-1" d="M440,51.79a0.37,0.37,0,0,1,.37-0.37h4.36c5.12,0,8.27,3.41,8.27,7.88a7.83,7.83,0,0,1-8.19,7.88H440V51.79Zm2.35,1.79V65h2.22c3.63,0,6-2.46,6-5.7s-2.18-5.72-6.13-5.72H442.4Z"/><path class="cls-1" d="M422.51,62.51a5.79,5.79,0,0,0,2.8-5V53.71a0.37,0.37,0,0,1,.37-0.37h1.73a0.37,0.37,0,0,1,.37.37v3.83a5.79,5.79,0,0,0,2.8,5l3.41,2a0.37,0.37,0,0,1,.13.5l-0.87,1.5a0.37,0.37,0,0,1-.5.13l-3.35-1.94a5.8,5.8,0,0,0-5.73,0l-3.35,1.94a0.37,0.37,0,0,1-.5-0.13L419,65a0.37,0.37,0,0,1,.13-0.5Z"/></svg>